{
  "source": "C:\\Users\\Peter\\Desktop\\stuff\\MIUN\\quantitative_research\\video_compression\\videos\\HEVC_CLASS_B\\Kimono_1920x1080_24.y4m",
  "output": "C:\\Users\\Peter\\Desktop\\stuff\\MIUN\\quantitative_research\\video_compression\\compressed_videos\\HEVC_CLASS_B\\av1\\8\\Kimono_1920x1080_24_av1.mkv",
  "codec": "av1",
  "ok": "Input #0, yuv4mpegpipe, from 'C:\\Users\\Peter\\Desktop\\stuff\\MIUN\\quantitative_research\\video_compression\\videos\\HEVC_CLASS_B\\Kimono_1920x1080_24.y4m':\n  Duration: 00:00:10.00, start: 0.000000, bitrate: 597198 kb/s\n  Stream #0:0: Video: rawvideo (I420 / 0x30323449), yuv420p(progressive), 1920x1080, 24 fps, 24 tbr, 24 tbn\n[out#0/matroska @ 0000026e16319080] Codec AVOption b:a (set bitrate (in bits/s)) has not been used for any stream. The most likely reason is either wrong type (e.g. a video option with no video streams) or that it is a private option of some decoder which was not actually used for any stream.\nStream mapping:\n  Stream #0:0 -> #0:0 (rawvideo (native) -> av1 (libsvtav1))\nPress [q] to stop, [?] for help\nSvt[info]: -------------------------------------------\nSvt[info]: SVT [version]:\tSVT-AV1 Encoder Lib v3.1.0-19-g6ecfe8ec\nSvt[info]: SVT [build]  :\tGCC 15.2.0\t 64 bit\nSvt[info]: LIB Build date: Aug 17 2025 11:37:13\nSvt[info]: -------------------------------------------\n[libsvtav1 @ 0000026e1631c0c0] Specified chroma sample location center is unsupported on the AV1 bit stream level. Usage of a container that allows passing this information - such as Matroska - is recommended.\nSvt[info]: Level of Parallelism: 5\nSvt[info]: Number of PPCS 93\nSvt[info]: [asm level on system : up to avx2]\nSvt[info]: [asm level selected : up to avx2]\nSvt[info]: -------------------------------------------\nSvt[info]: SVT [config]: main profile\ttier (auto)\tlevel (auto)\nSvt[info]: SVT [config]: width / height / fps numerator / fps denominator \t\t: 1920 / 1080 / 24 / 1\nSvt[info]: SVT [config]: bit-depth / color format \t\t\t\t\t: 8 / YUV420\nSvt[info]: SVT [config]: preset / tune / pred struct \t\t\t\t\t: 4 / PSNR / random access\nSvt[info]: SVT [config]: gop size / mini-gop size / key-frame type \t\t\t: 161 / 16 / key frame\nSvt[info]: SVT [config]: BRC mode / target bitrate (kbps)\t\t\t\t: VBR / 8000 \nSvt[info]: SVT [config]: AQ mode / Variance Boost \t\t\t\t\t: 2 / 0\nSvt[info]: SVT [config]: sharpness / luminance-based QP bias \t\t\t\t: 0 / 0\nSvt[info]: SVT [config]: QP scale compress strength \t\t\t\t\t: 0\nSvt[info]: -------------------------------------------\nOutput #0, matroska, to 'C:\\Users\\Peter\\Desktop\\stuff\\MIUN\\quantitative_research\\video_compression\\compressed_videos\\HEVC_CLASS_B\\av1\\8\\Kimono_1920x1080_24_av1.mkv':\n  Metadata:\n    encoder         : Lavf62.3.100\n  Stream #0:0: Video: av1 (AV01 / 0x31305641), yuv420p(tv, progressive), 1920x1080, q=2-31, 8000 kb/s, 24 fps, 1k tbn\n    Metadata:\n      encoder         : Lavc62.11.100 libsvtav1\n    Side data:\n      cpb: bitrate max/min/avg: 0/0/8000000 buffer size: 8000000 vbv_delay: N/A\nframe=    0 fps=0.0 q=0.0 size=       0KiB time=N/A bitrate=N/A speed=N/A elapsed=0:00:02.25    \nframe=    0 fps=0.0 q=0.0 size=       0KiB time=N/A bitrate=N/A speed=N/A elapsed=0:00:03.09    \nframe=    0 fps=0.0 q=0.0 size=       0KiB time=N/A bitrate=N/A speed=N/A elapsed=0:00:03.98    \nframe=    0 fps=0.0 q=0.0 size=       0KiB time=N/A bitrate=N/A speed=N/A elapsed=0:00:04.80    \nframe=    0 fps=0.0 q=0.0 size=       0KiB time=N/A bitrate=N/A speed=N/A elapsed=0:00:05.35    \nframe=    0 fps=0.0 q=0.0 size=       0KiB time=N/A bitrate=N/A speed=N/A elapsed=0:00:05.88    \nframe=    0 fps=0.0 q=0.0 size=       0KiB time=N/A bitrate=N/A speed=N/A elapsed=0:00:06.39    \nframe=    0 fps=0.0 q=0.0 size=       0KiB time=N/A bitrate=N/A speed=N/A elapsed=0:00:06.91    \nframe=    0 fps=0.0 q=0.0 size=       0KiB time=N/A bitrate=N/A speed=N/A elapsed=0:00:07.45    \nframe=    0 fps=0.0 q=0.0 size=       0KiB time=N/A bitrate=N/A speed=N/A elapsed=0:00:07.97    \nframe=    1 fps=0.1 q=9.0 size=       1KiB time=N/A bitrate=N/A speed=N/A elapsed=0:00:08.51    \nframe=    1 fps=0.1 q=9.0 size=       1KiB time=00:00:00.00 bitrate=N/A speed=   0x elapsed=0:00:09.02    \nframe=    1 fps=0.1 q=9.0 size=       1KiB time=00:00:00.00 bitrate=N/A speed=   0x elapsed=0:00:09.54    \nframe=    1 fps=0.1 q=9.0 size=       1KiB time=00:00:00.00 bitrate=N/A speed=   0x elapsed=0:00:10.06    \nframe=    1 fps=0.1 q=9.0 size=       1KiB time=00:00:00.00 bitrate=N/A speed=   0x elapsed=0:00:10.56    \nframe=    1 fps=0.1 q=9.0 size=       1KiB time=00:00:00.00 bitrate=N/A speed=   0x elapsed=0:00:11.11    \nframe=    1 fps=0.1 q=9.0 size=       1KiB time=00:00:00.00 bitrate=N/A speed=   0x elapsed=0:00:11.66    \nframe=    1 fps=0.1 q=9.0 size=       1KiB time=00:00:00.00 bitrate=N/A speed=   0x elapsed=0:00:12.18    \nframe=    1 fps=0.1 q=9.0 size=       1KiB time=00:00:00.00 bitrate=N/A speed=   0x elapsed=0:00:12.78    \nframe=    3 fps=0.2 q=19.0 size=       1KiB time=00:00:00.08 bitrate=  54.0kbits/s speed=0.00623x elapsed=0:00:13.37    \nframe=    3 fps=0.2 q=19.0 size=       1KiB time=00:00:00.08 bitrate=  54.0kbits/s speed=0.00599x elapsed=0:00:13.90    \nframe=    4 fps=0.3 q=21.0 size=       1KiB time=00:00:00.12 bitrate=  36.0kbits/s speed=0.00865x elapsed=0:00:14.45    \nframe=    5 fps=0.3 q=18.0 size=       1KiB time=00:00:00.16 bitrate=  27.0kbits/s speed=0.011x elapsed=0:00:15.12    \nframe=    6 fps=0.4 q=18.0 size=       1KiB time=00:00:00.20 bitrate=  21.6kbits/s speed=0.0133x elapsed=0:00:15.71    \nframe=    6 fps=0.4 q=18.0 size=       1KiB time=00:00:00.20 bitrate=  21.6kbits/s speed=0.0128x elapsed=0:00:16.22    \nframe=    7 fps=0.4 q=18.0 size=       1KiB time=00:00:00.25 bitrate=  18.0kbits/s speed=0.0149x elapsed=0:00:16.76    \nframe=    8 fps=0.5 q=18.0 size=       1KiB time=00:00:00.29 bitrate=  15.4kbits/s speed=0.0168x elapsed=0:00:17.33    \nframe=   10 fps=0.6 q=16.0 size=       1KiB time=00:00:00.33 bitrate=  13.5kbits/s speed=0.0186x elapsed=0:00:17.92    \nframe=   11 fps=0.6 q=16.0 size=       1KiB time=00:00:00.41 bitrate=  10.8kbits/s speed=0.0225x elapsed=0:00:18.49    \nframe=   12 fps=0.6 q=16.0 size=       1KiB time=00:00:00.45 bitrate=   9.8kbits/s speed=0.0241x elapsed=0:00:19.04    \nframe=   14 fps=0.7 q=16.0 size=       1KiB time=00:00:00.54 bitrate=   8.3kbits/s speed=0.0277x elapsed=0:00:19.55    \nframe=   15 fps=0.7 q=16.0 size=       1KiB time=00:00:00.58 bitrate=   7.7kbits/s speed=0.029x elapsed=0:00:20.10    \nframe=   17 fps=0.8 q=11.0 size=       1KiB time=00:00:00.66 bitrate=   6.7kbits/s speed=0.0323x elapsed=0:00:20.64    \nframe=   18 fps=0.8 q=14.0 size=       1KiB time=00:00:00.70 bitrate=   6.3kbits/s speed=0.0334x elapsed=0:00:21.18    \nframe=   19 fps=0.9 q=16.0 size=       1KiB time=00:00:00.75 bitrate=   6.0kbits/s speed=0.0345x elapsed=0:00:21.76    \nframe=   21 fps=0.9 q=14.0 size=       1KiB time=00:00:00.83 bitrate=   5.4kbits/s speed=0.0373x elapsed=0:00:22.32    \nframe=   22 fps=1.0 q=14.0 size=       1KiB time=00:00:00.87 bitrate=   5.1kbits/s speed=0.0382x elapsed=0:00:22.90    \nframe=   23 fps=1.0 q=16.0 size=       1KiB time=00:00:00.91 bitrate=   4.9kbits/s speed=0.039x elapsed=0:00:23.50    \nframe=   23 fps=1.0 q=16.0 size=       1KiB time=00:00:00.91 bitrate=   4.9kbits/s speed=0.0381x elapsed=0:00:24.07    \nframe=   24 fps=1.0 q=14.0 size=       1KiB time=00:00:00.95 bitrate=   4.7kbits/s speed=0.0389x elapsed=0:00:24.63    \nframe=   25 fps=1.0 q=13.0 size=       1KiB time=00:00:01.00 bitrate=   4.5kbits/s speed=0.0397x elapsed=0:00:25.20    \nframe=   26 fps=1.0 q=15.0 size=       1KiB time=00:00:01.04 bitrate=   4.3kbits/s speed=0.0404x elapsed=0:00:25.77    \nframe=   26 fps=1.0 q=15.0 size=       1KiB time=00:00:01.04 bitrate=   4.3kbits/s speed=0.0396x elapsed=0:00:26.30    \nframe=   28 fps=1.0 q=15.0 size=       1KiB time=00:00:01.12 bitrate=   4.0kbits/s speed=0.0419x elapsed=0:00:26.87    \nframe=   29 fps=1.1 q=14.0 size=       1KiB time=00:00:01.16 bitrate=   3.9kbits/s speed=0.0425x elapsed=0:00:27.43    \nframe=   31 fps=1.1 q=16.0 size=       1KiB time=00:00:01.25 bitrate=   3.6kbits/s speed=0.0447x elapsed=0:00:27.95    \nframe=   32 fps=1.1 q=15.0 size=       1KiB time=00:00:01.29 bitrate=   3.5kbits/s speed=0.0453x elapsed=0:00:28.51    \nframe=   33 fps=1.1 q=10.0 size=       1KiB time=00:00:01.33 bitrate=   3.4kbits/s speed=0.0459x elapsed=0:00:29.03    \nframe=   34 fps=1.1 q=15.0 size=       1KiB time=00:00:01.37 bitrate=   3.3kbits/s speed=0.0465x elapsed=0:00:29.57    \nframe=   36 fps=1.2 q=15.0 size=       1KiB time=00:00:01.45 bitrate=   3.1kbits/s speed=0.0484x elapsed=0:00:30.10    \nframe=   37 fps=1.2 q=14.0 size=       1KiB time=00:00:01.50 bitrate=   3.0kbits/s speed=0.049x elapsed=0:00:30.63    \nframe=   38 fps=1.2 q=15.0 size=       1KiB time=00:00:01.54 bitrate=   2.9kbits/s speed=0.0495x elapsed=0:00:31.16    \nframe=   40 fps=1.3 q=15.0 size=       1KiB time=00:00:01.62 bitrate=   2.8kbits/s speed=0.0513x elapsed=0:00:31.69    \nframe=   41 fps=1.3 q=13.0 size=       1KiB time=00:00:01.66 bitrate=   2.7kbits/s speed=0.0517x elapsed=0:00:32.22    \nframe=   42 fps=1.3 q=16.0 size=       1KiB time=00:00:01.70 bitrate=   2.6kbits/s speed=0.0522x elapsed=0:00:32.75    \nframe=   43 fps=1.3 q=16.0 size=       1KiB time=00:00:01.75 bitrate=   2.6kbits/s speed=0.0526x elapsed=0:00:33.29    \nframe=   44 fps=1.3 q=16.0 size=       1KiB time=00:00:01.79 bitrate=   2.5kbits/s speed=0.053x elapsed=0:00:33.82    \nframe=   46 fps=1.3 q=16.0 size=       1KiB time=00:00:01.87 bitrate=   2.4kbits/s speed=0.0546x elapsed=0:00:34.35    \nframe=   47 fps=1.3 q=16.0 size=       1KiB time=00:00:01.87 bitrate=   2.4kbits/s speed=0.0538x elapsed=0:00:34.87    \nframe=   48 fps=1.4 q=16.0 size=       1KiB time=00:00:01.95 bitrate=   2.3kbits/s speed=0.0553x elapsed=0:00:35.39    \nframe=   49 fps=1.4 q=7.0 size=       1KiB time=00:00:02.00 bitrate=   2.2kbits/s speed=0.0557x elapsed=0:00:35.89    \nframe=   50 fps=1.4 q=16.0 size=       1KiB time=00:00:02.04 bitrate=   2.2kbits/s speed=0.0561x elapsed=0:00:36.41    \nframe=   51 fps=1.4 q=16.0 size=       1KiB time=00:00:02.04 bitrate=   2.2kbits/s speed=0.0552x elapsed=0:00:36.95    \nframe=   51 fps=1.4 q=16.0 size=       1KiB time=00:00:02.08 bitrate=   2.2kbits/s speed=0.0556x elapsed=0:00:37.48    \nframe=   52 fps=1.4 q=16.0 size=       1KiB time=00:00:02.12 bitrate=   2.1kbits/s speed=0.0559x elapsed=0:00:38.00    \nframe=   53 fps=1.4 q=14.0 size=       1KiB time=00:00:02.16 bitrate=   2.1kbits/s speed=0.0562x elapsed=0:00:38.52    \nframe=   53 fps=1.4 q=14.0 size=       1KiB time=00:00:02.16 bitrate=   2.1kbits/s speed=0.0555x elapsed=0:00:39.07    \nframe=   54 fps=1.4 q=16.0 size=       1KiB time=00:00:02.20 bitrate=   2.0kbits/s speed=0.0558x elapsed=0:00:39.58    \nframe=   55 fps=1.4 q=16.0 size=       1KiB time=00:00:02.25 bitrate=   2.0kbits/s speed=0.0561x elapsed=0:00:40.12    \nframe=   56 fps=1.4 q=16.0 size=       1KiB time=00:00:02.29 bitrate=   2.0kbits/s speed=0.0564x elapsed=0:00:40.63    \nframe=   57 fps=1.4 q=13.0 size=       1KiB time=00:00:02.33 bitrate=   1.9kbits/s speed=0.0567x elapsed=0:00:41.17    \nframe=   58 fps=1.4 q=16.0 size=       1KiB time=00:00:02.37 bitrate=   1.9kbits/s speed=0.057x elapsed=0:00:41.69    \nframe=   59 fps=1.4 q=16.0 size=       1KiB time=00:00:02.41 bitrate=   1.9kbits/s speed=0.0572x elapsed=0:00:42.26    \nframe=   60 fps=1.4 q=15.0 size=       1KiB time=00:00:02.45 bitrate=   1.8kbits/s speed=0.0575x elapsed=0:00:42.77    \nframe=   60 fps=1.4 q=15.0 size=       1KiB time=00:00:02.45 bitrate=   1.8kbits/s speed=0.0568x elapsed=0:00:43.30    \nframe=   62 fps=1.4 q=16.0 size=       1KiB time=00:00:02.54 bitrate=   1.8kbits/s speed=0.058x elapsed=0:00:43.82    \nframe=   64 fps=1.4 q=16.0 size=       1KiB time=00:00:02.62 bitrate=   1.7kbits/s speed=0.0592x elapsed=0:00:44.37    \nframe=   65 fps=1.4 q=6.0 size=       1KiB time=00:00:02.66 bitrate=   1.7kbits/s speed=0.0594x elapsed=0:00:44.90    \nframe=   67 fps=1.5 q=16.0 size=       1KiB time=00:00:02.75 bitrate=   1.6kbits/s speed=0.0606x elapsed=0:00:45.41    \nframe=   68 fps=1.5 q=17.0 size=       1KiB time=00:00:02.79 bitrate=   1.6kbits/s speed=0.0607x elapsed=0:00:45.98    \nframe=   69 fps=1.5 q=14.0 size=       1KiB time=00:00:02.83 bitrate=   1.6kbits/s speed=0.0609x elapsed=0:00:46.52    \nframe=   70 fps=1.5 q=17.0 size=       1KiB time=00:00:02.87 bitrate=   1.6kbits/s speed=0.0611x elapsed=0:00:47.06    \nframe=   71 fps=1.5 q=16.0 size=       1KiB time=00:00:02.91 bitrate=   1.5kbits/s speed=0.0612x elapsed=0:00:47.65    \nframe=   72 fps=1.5 q=17.0 size=       1KiB time=00:00:02.95 bitrate=   1.5kbits/s speed=0.0614x elapsed=0:00:48.21    \nframe=   73 fps=1.5 q=13.0 size=       1KiB time=00:00:03.00 bitrate=   1.5kbits/s speed=0.0615x elapsed=0:00:48.76    \nframe=   74 fps=1.5 q=18.0 size=       1KiB time=00:00:03.04 bitrate=   1.5kbits/s speed=0.0617x elapsed=0:00:49.29    \nframe=   75 fps=1.5 q=17.0 size=       1KiB time=00:00:03.08 bitrate=   1.5kbits/s speed=0.0619x elapsed=0:00:49.83    \nframe=   78 fps=1.5 q=19.0 size=       1KiB time=00:00:03.20 bitrate=   1.4kbits/s speed=0.0637x elapsed=0:00:50.36    \nframe=   80 fps=1.6 q=15.0 size=       1KiB time=00:00:03.29 bitrate=   1.4kbits/s speed=0.0647x elapsed=0:00:50.88    \nframe=   82 fps=1.6 q=20.0 size=       1KiB time=00:00:03.37 bitrate=   1.3kbits/s speed=0.0657x elapsed=0:00:51.40    \nframe=   83 fps=1.6 q=19.0 size=       1KiB time=00:00:03.41 bitrate=   1.3kbits/s speed=0.0658x elapsed=0:00:51.94    \nframe=   84 fps=1.6 q=20.0 size=       1KiB time=00:00:03.45 bitrate=   1.3kbits/s speed=0.0659x elapsed=0:00:52.46    \nframe=   85 fps=1.6 q=17.0 size=       1KiB time=00:00:03.50 bitrate=   1.3kbits/s speed=0.066x elapsed=0:00:52.99    \nframe=   86 fps=1.6 q=20.0 size=       1KiB time=00:00:03.54 bitrate=   1.3kbits/s speed=0.0662x elapsed=0:00:53.53    \nframe=   87 fps=1.6 q=19.0 size=       1KiB time=00:00:03.58 bitrate=   1.3kbits/s speed=0.0663x elapsed=0:00:54.07    \nframe=   88 fps=1.6 q=20.0 size=       1KiB time=00:00:03.62 bitrate=   1.2kbits/s speed=0.0663x elapsed=0:00:54.63    \nframe=   90 fps=1.6 q=20.0 size=       1KiB time=00:00:03.70 bitrate=   1.2kbits/s speed=0.0672x elapsed=0:00:55.16    \nframe=   90 fps=1.6 q=20.0 size=       1KiB time=00:00:03.70 bitrate=   1.2kbits/s speed=0.0666x elapsed=0:00:55.71    \nframe=   92 fps=1.6 q=18.0 size=       1KiB time=00:00:03.79 bitrate=   1.2kbits/s speed=0.0674x elapsed=0:00:56.25    \nframe=   93 fps=1.6 q=15.0 size=       1KiB time=00:00:03.83 bitrate=   1.2kbits/s speed=0.0675x elapsed=0:00:56.77    \nframe=   95 fps=1.7 q=18.0 size=       1KiB time=00:00:03.91 bitrate=   1.1kbits/s speed=0.0684x elapsed=0:00:57.29    \nframe=   95 fps=1.6 q=18.0 size=       1KiB time=00:00:03.91 bitrate=   1.1kbits/s speed=0.0677x elapsed=0:00:57.84    \nframe=   96 fps=1.6 q=19.0 size=       1KiB time=00:00:03.95 bitrate=   1.1kbits/s speed=0.0678x elapsed=0:00:58.38    \nframe=   97 fps=1.6 q=7.0 size=       1KiB time=00:00:04.00 bitrate=   1.1kbits/s speed=0.0679x elapsed=0:00:58.89    \nframe=   98 fps=1.6 q=19.0 size=       1KiB time=00:00:04.04 bitrate=   1.1kbits/s speed=0.068x elapsed=0:00:59.41    \nframe=   98 fps=1.6 q=19.0 size=       1KiB time=00:00:04.04 bitrate=   1.1kbits/s speed=0.0674x elapsed=0:00:59.95    \nframe=   99 fps=1.6 q=18.0 size=       1KiB time=00:00:04.08 bitrate=   1.1kbits/s speed=0.0675x elapsed=0:01:00.47    \nframe=  101 fps=1.7 q=15.0 size=       1KiB time=00:00:04.16 bitrate=   1.1kbits/s speed=0.0683x elapsed=0:01:01.02    \nframe=  101 fps=1.6 q=15.0 size=       1KiB time=00:00:04.16 bitrate=   1.1kbits/s speed=0.0677x elapsed=0:01:01.53    \nframe=  102 fps=1.6 q=19.0 size=       1KiB time=00:00:04.20 bitrate=   1.1kbits/s speed=0.0678x elapsed=0:01:02.05    \nframe=  103 fps=1.6 q=18.0 size=       1KiB time=00:00:04.25 bitrate=   1.1kbits/s speed=0.0679x elapsed=0:01:02.61    \nframe=  105 fps=1.7 q=15.0 size=       1KiB time=00:00:04.33 bitrate=   1.0kbits/s speed=0.0686x elapsed=0:01:03.12    \nframe=  106 fps=1.7 q=19.0 size=       1KiB time=00:00:04.37 bitrate=   1.0kbits/s speed=0.0687x elapsed=0:01:03.67    \nframe=  107 fps=1.7 q=18.0 size=       1KiB time=00:00:04.41 bitrate=   1.0kbits/s speed=0.0688x elapsed=0:01:04.23    \nframe=  108 fps=1.7 q=18.0 size=       1KiB time=00:00:04.45 bitrate=   1.0kbits/s speed=0.0688x elapsed=0:01:04.80    \nframe=  110 fps=1.7 q=20.0 size=       1KiB time=00:00:04.54 bitrate=   1.0kbits/s speed=0.0695x elapsed=0:01:05.34    \nframe=  112 fps=1.7 q=20.0 size=       1KiB time=00:00:04.62 bitrate=   1.0kbits/s speed=0.0702x elapsed=0:01:05.89    \nframe=  113 fps=1.7 q=9.0 size=       1KiB time=00:00:04.66 bitrate=   1.0kbits/s speed=0.0703x elapsed=0:01:06.41    \nframe=  114 fps=1.7 q=21.0 size=       1KiB time=00:00:04.70 bitrate=   1.0kbits/s speed=0.0703x elapsed=0:01:06.93    \nframe=  115 fps=1.7 q=20.0 size=       1KiB time=00:00:04.75 bitrate=   0.9kbits/s speed=0.0704x elapsed=0:01:07.47    \nframe=  116 fps=1.7 q=14.0 size=       1KiB time=00:00:04.75 bitrate=   0.9kbits/s speed=0.0698x elapsed=0:01:08.07    \nframe=  116 fps=1.7 q=14.0 size=       1KiB time=00:00:04.79 bitrate=   0.9kbits/s speed=0.0698x elapsed=0:01:08.60    \nframe=  117 fps=1.7 q=18.0 size=       1KiB time=00:00:04.83 bitrate=   0.9kbits/s speed=0.0699x elapsed=0:01:09.12    \nframe=  117 fps=1.7 q=18.0 size=       1KiB time=00:00:04.83 bitrate=   0.9kbits/s speed=0.0694x elapsed=0:01:09.63    \nframe=  118 fps=1.7 q=18.0 size=       1KiB time=00:00:04.87 bitrate=   0.9kbits/s speed=0.0695x elapsed=0:01:10.16    \nframe=  121 fps=1.7 q=15.0 size=    5120KiB time=00:00:05.00 bitrate=8388.6kbits/s speed=0.0707x elapsed=0:01:10.69    \nframe=  122 fps=1.7 q=20.0 size=    5120KiB time=00:00:05.04 bitrate=8319.3kbits/s speed=0.0708x elapsed=0:01:11.22    \nframe=  123 fps=1.7 q=18.0 size=    5120KiB time=00:00:05.04 bitrate=8319.3kbits/s speed=0.0702x elapsed=0:01:11.77    \nframe=  123 fps=1.7 q=18.0 size=    5120KiB time=00:00:05.08 bitrate=8251.1kbits/s speed=0.0703x elapsed=0:01:12.34    \nframe=  125 fps=1.7 q=14.0 size=    5120KiB time=00:00:05.16 bitrate=8118.0kbits/s speed=0.0709x elapsed=0:01:12.87    \nframe=  127 fps=1.7 q=18.0 size=    5120KiB time=00:00:05.25 bitrate=7989.2kbits/s speed=0.0715x elapsed=0:01:13.38    \nframe=  128 fps=1.7 q=18.0 size=    5120KiB time=00:00:05.29 bitrate=7926.2kbits/s speed=0.0716x elapsed=0:01:13.91    \nframe=  129 fps=1.7 q=10.0 size=    5120KiB time=00:00:05.33 bitrate=7864.3kbits/s speed=0.0716x elapsed=0:01:14.49    \nframe=  130 fps=1.7 q=18.0 size=    5120KiB time=00:00:05.37 bitrate=7803.4kbits/s speed=0.0716x elapsed=0:01:15.05    \nframe=  131 fps=1.7 q=17.0 size=    5120KiB time=00:00:05.41 bitrate=7743.3kbits/s speed=0.0716x elapsed=0:01:15.64    \nframe=  133 fps=1.7 q=16.0 size=    5120KiB time=00:00:05.50 bitrate=7626.0kbits/s speed=0.0722x elapsed=0:01:16.15    \nframe=  134 fps=1.7 q=17.0 size=    5120KiB time=00:00:05.54 bitrate=7568.7kbits/s speed=0.0722x elapsed=0:01:16.74    \nframe=  135 fps=1.7 q=15.0 size=    5120KiB time=00:00:05.58 bitrate=7512.2kbits/s speed=0.0723x elapsed=0:01:17.26    \nframe=  136 fps=1.7 q=11.0 size=    5120KiB time=00:00:05.58 bitrate=7512.2kbits/s speed=0.0718x elapsed=0:01:17.79    \nframe=  138 fps=1.8 q=17.0 size=    5120KiB time=00:00:05.70 bitrate=7347.7kbits/s speed=0.0729x elapsed=0:01:18.33    \nframe=  139 fps=1.8 q=15.0 size=    5120KiB time=00:00:05.75 bitrate=7294.4kbits/s speed=0.0729x elapsed=0:01:18.86    \nframe=  141 fps=1.8 q=12.0 size=    5120KiB time=00:00:05.83 bitrate=7190.2kbits/s speed=0.0734x elapsed=0:01:19.42    \nframe=  143 fps=1.8 q=16.0 size=    5120KiB time=00:00:05.91 bitrate=7089.0kbits/s speed=0.074x elapsed=0:01:19.97    \nframe=  145 fps=1.8 q=7.0 size=    5120KiB time=00:00:06.00 bitrate=6990.5kbits/s speed=0.0745x elapsed=0:01:20.56    \nframe=  147 fps=1.8 q=17.0 size=    5120KiB time=00:00:06.08 bitrate=6894.7kbits/s speed=0.075x elapsed=0:01:21.12    \nframe=  149 fps=1.8 q=16.0 size=    5120KiB time=00:00:06.16 bitrate=6801.6kbits/s speed=0.0755x elapsed=0:01:21.69    \nframe=  149 fps=1.8 q=16.0 size=    5120KiB time=00:00:06.16 bitrate=6801.6kbits/s speed=0.075x elapsed=0:01:22.26    \nframe=  151 fps=1.8 q=17.0 size=    5120KiB time=00:00:06.25 bitrate=6710.9kbits/s speed=0.0754x elapsed=0:01:22.85    \nframe=  153 fps=1.8 q=11.0 size=    5120KiB time=00:00:06.33 bitrate=6622.6kbits/s speed=0.0758x elapsed=0:01:23.52    \nframe=  153 fps=1.8 q=11.0 size=    5120KiB time=00:00:06.33 bitrate=6622.6kbits/s speed=0.0754x elapsed=0:01:24.04    \nframe=  153 fps=1.8 q=11.0 size=    5120KiB time=00:00:06.33 bitrate=6622.6kbits/s speed=0.0749x elapsed=0:01:24.58    \nframe=  155 fps=1.8 q=16.0 size=    5120KiB time=00:00:06.41 bitrate=6536.6kbits/s speed=0.0754x elapsed=0:01:25.12    \nframe=  157 fps=1.8 q=13.0 size=    5120KiB time=00:00:06.50 bitrate=6452.8kbits/s speed=0.0759x elapsed=0:01:25.67    \nframe=  157 fps=1.8 q=13.0 size=    5120KiB time=00:00:06.50 bitrate=6452.8kbits/s speed=0.0754x elapsed=0:01:26.20    \nframe=  180 fps=2.1 q=17.0 size=    6400KiB time=00:00:07.04 bitrate=7445.5kbits/s speed=0.0811x elapsed=0:01:26.82    \nframe=  182 fps=2.1 q=16.0 size=    6400KiB time=00:00:07.54 bitrate=6951.9kbits/s speed=0.0863x elapsed=0:01:27.38    \nframe=  182 fps=2.1 q=16.0 size=    6400KiB time=00:00:07.54 bitrate=6951.9kbits/s speed=0.0857x elapsed=0:01:27.94    \nframe=  184 fps=2.1 q=17.0 size=    6400KiB time=00:00:07.62 bitrate=6875.9kbits/s speed=0.0861x elapsed=0:01:28.52    \nframe=  186 fps=2.1 q=13.0 size=    6400KiB time=00:00:07.70 bitrate=6801.6kbits/s speed=0.0865x elapsed=0:01:29.12    \nframe=  186 fps=2.1 q=13.0 size=    6400KiB time=00:00:07.70 bitrate=6801.6kbits/s speed=0.0859x elapsed=0:01:29.71    \nframe=  186 fps=2.1 q=13.0 size=    6400KiB time=00:00:07.70 bitrate=6801.6kbits/s speed=0.0854x elapsed=0:01:30.28    \nframe=  190 fps=2.1 q=12.0 size=    6400KiB time=00:00:07.79 bitrate=6728.8kbits/s speed=0.0857x elapsed=0:01:30.87    \nframe=  190 fps=2.1 q=12.0 size=    6400KiB time=00:00:07.87 bitrate=6657.6kbits/s speed=0.0861x elapsed=0:01:31.47    \nframe=  192 fps=2.1 q=15.0 size=    6400KiB time=00:00:07.95 bitrate=6587.9kbits/s speed=0.0864x elapsed=0:01:32.11    \nframe=  194 fps=2.1 q=7.0 size=    6400KiB time=00:00:08.04 bitrate=6519.6kbits/s speed=0.0868x elapsed=0:01:32.65    \nframe=  194 fps=2.1 q=7.0 size=    6400KiB time=00:00:08.04 bitrate=6519.6kbits/s speed=0.0863x elapsed=0:01:33.23    \nframe=  196 fps=2.1 q=16.0 size=    6400KiB time=00:00:08.12 bitrate=6452.8kbits/s speed=0.0866x elapsed=0:01:33.87    \nframe=  198 fps=2.1 q=15.0 size=    6400KiB time=00:00:08.20 bitrate=6387.3kbits/s speed=0.087x elapsed=0:01:34.39    \nframe=  198 fps=2.1 q=15.0 size=    6400KiB time=00:00:08.20 bitrate=6387.3kbits/s speed=0.0865x elapsed=0:01:34.93    \nframe=  200 fps=2.1 q=16.0 size=    6400KiB time=00:00:08.29 bitrate=6323.1kbits/s speed=0.0869x elapsed=0:01:35.46    \nframe=  202 fps=2.1 q=12.0 size=    6400KiB time=00:00:08.37 bitrate=6260.2kbits/s speed=0.0872x elapsed=0:01:36.02    \nframe=  202 fps=2.1 q=12.0 size=    6400KiB time=00:00:08.37 bitrate=6260.2kbits/s speed=0.0867x elapsed=0:01:36.61    \nframe=  202 fps=2.1 q=12.0 size=    6400KiB time=00:00:08.37 bitrate=6260.2kbits/s speed=0.0862x elapsed=0:01:37.15    \nframe=  206 fps=2.1 q=11.0 size=    6400KiB time=00:00:08.45 bitrate=6198.5kbits/s speed=0.086x elapsed=0:01:38.33    \nframe=  208 fps=2.1 q=15.0 size=    6400KiB time=00:00:08.54 bitrate=6138.0kbits/s speed=0.086x elapsed=0:01:39.33    \nframe=  210 fps=2.1 q=6.0 size=    6400KiB time=00:00:08.70 bitrate=6020.5kbits/s speed=0.0868x elapsed=0:01:40.35    \nframe=  214 fps=2.1 q=13.0 size=    6400KiB time=00:00:08.79 bitrate=5963.5kbits/s speed=0.0868x elapsed=0:01:41.25    \nframe=  218 fps=2.1 q=11.0 size=    6400KiB time=00:00:08.95 bitrate=5852.5kbits/s speed=0.0877x elapsed=0:01:42.14    \nframe=  218 fps=2.1 q=11.0 size=    6400KiB time=00:00:09.04 bitrate=5798.6kbits/s speed=0.0878x elapsed=0:01:43.01    \nframe=  222 fps=2.1 q=16.0 size=    6400KiB time=00:00:09.20 bitrate=5693.6kbits/s speed=0.0886x elapsed=0:01:43.92    \nframe=  222 fps=2.1 q=16.0 size=    6400KiB time=00:00:09.20 bitrate=5693.6kbits/s speed=0.0881x elapsed=0:01:44.46    \nframe=  230 fps=2.2 q=12.0 size=    6400KiB time=00:00:09.29 bitrate=5642.6kbits/s speed=0.0885x elapsed=0:01:45.04    \n[out#0/matroska @ 0000026e16319080] video:8470KiB audio:0KiB subtitle:0KiB other streams:0KiB global headers:0KiB muxing overhead: 0.021179%\nframe=  240 fps=2.3 q=13.0 Lsize=    8472KiB time=00:00:09.95 bitrate=6969.5kbits/s speed=0.0944x elapsed=0:01:45.52    \n",
  "seconds": 106.84279012680054,
  "probe_out": {}
}